<svg width="1404" height="351" viewBox="0 0 1404 351" fill="none" xmlns="http://www.w3.org/2000/svg">
<rect width="1404" height="351" fill="#1E1E1E"/>
<path d="M0 0H1404V351H0V0Z" fill="#303030"/>
<path d="M410.421 132.344L444.405 203H432.021L425.973 189.176H393.621L387.573 203H375.573L409.365 132.344H410.421ZM405.621 162.392L397.941 179.48H421.749L414.165 162.488L410.037 152.792H409.845L405.621 162.392ZM460.441 204.344L442.201 158.936H453.913L463.321 186.968L465.433 193.784L467.545 186.968L477.433 158.936H488.761L461.689 227.192H450.937L460.441 204.344ZM514.976 203.96C511.008 203.96 507.328 203.032 503.936 201.176C500.608 199.256 497.92 196.568 495.872 193.112C493.888 189.592 492.896 185.496 492.896 180.824C492.896 176.216 493.76 172.184 495.488 168.728C497.28 165.272 499.808 162.584 503.072 160.664C506.336 158.744 510.176 157.784 514.592 157.784C517.152 157.784 519.552 158.232 521.792 159.128C524.032 160.024 525.92 161.144 527.456 162.488C528.992 163.768 530.016 165.048 530.528 166.328L530.72 158.936H540.608V203H530.816L530.624 195.224C529.536 197.528 527.552 199.576 524.672 201.368C521.792 203.096 518.56 203.96 514.976 203.96ZM516.704 195.32C520.352 195.32 523.424 194.072 525.92 191.576C528.416 189.016 529.664 185.688 529.664 181.592V180.92C529.664 178.168 529.088 175.704 527.936 173.528C526.784 171.352 525.216 169.656 523.232 168.44C521.248 167.224 519.072 166.616 516.704 166.616C512.608 166.616 509.44 167.96 507.2 170.648C504.96 173.272 503.84 176.696 503.84 180.92C503.84 185.208 504.928 188.696 507.104 191.384C509.344 194.008 512.544 195.32 516.704 195.32ZM554.55 158.936H564.918V166.904C566.326 163.896 568.374 161.624 571.062 160.088C573.814 158.552 576.95 157.784 580.47 157.784C588.342 157.848 593.174 160.568 594.966 165.944C596.374 163.448 598.486 161.464 601.302 159.992C604.118 158.52 607.094 157.784 610.23 157.784C614.838 157.784 618.326 158.68 620.694 160.472C623.062 162.2 624.63 164.696 625.398 167.96C626.23 171.16 626.646 175.48 626.646 180.92V203H616.182V180.824C616.182 175.64 615.638 171.928 614.55 169.688C613.526 167.448 611.51 166.328 608.502 166.328C604.47 166.328 601.398 167.704 599.286 170.456C597.238 173.144 596.214 176.696 596.214 181.112V203H585.846V179.288C585.846 175.896 585.718 173.368 585.462 171.704C585.206 170.04 584.502 168.728 583.35 167.768C582.198 166.808 580.342 166.328 577.782 166.328C575.542 166.328 573.43 167 571.446 168.344C569.526 169.688 567.958 171.512 566.742 173.816C565.59 176.056 565.014 178.488 565.014 181.112V203H554.55V158.936ZM664.066 132.44H682.018C692.13 132.44 698.85 134.136 702.178 137.528C705.506 140.92 707.17 145.016 707.17 149.816C707.17 153.016 706.466 156.056 705.058 158.936C703.65 161.752 701.41 163.864 698.338 165.272C702.882 166.424 706.21 168.44 708.322 171.32C710.498 174.2 711.586 177.592 711.586 181.496C711.586 185.592 710.946 189.176 709.666 192.248C708.386 195.32 705.73 197.88 701.698 199.928C697.666 201.976 691.842 203 684.226 203H664.066V132.44ZM683.746 162.392C688.29 162.392 691.522 161.304 693.442 159.128C695.362 156.888 696.322 154.072 696.322 150.68C696.322 144.6 691.97 141.56 683.266 141.56H674.626V162.392H683.746ZM685.666 193.976C691.49 193.976 695.394 192.824 697.378 190.52C699.426 188.152 700.45 185.176 700.45 181.592C700.45 178.2 699.298 175.576 696.994 173.72C694.69 171.864 691.202 170.936 686.53 170.936H674.626V193.976H685.666ZM742.976 203.96C739.008 203.96 735.328 203.032 731.936 201.176C728.608 199.256 725.92 196.568 723.872 193.112C721.888 189.592 720.896 185.496 720.896 180.824C720.896 176.216 721.76 172.184 723.488 168.728C725.28 165.272 727.808 162.584 731.072 160.664C734.336 158.744 738.176 157.784 742.592 157.784C745.152 157.784 747.552 158.232 749.792 159.128C752.032 160.024 753.92 161.144 755.456 162.488C756.992 163.768 758.016 165.048 758.528 166.328L758.72 158.936H768.608V203H758.816L758.624 195.224C757.536 197.528 755.552 199.576 752.672 201.368C749.792 203.096 746.56 203.96 742.976 203.96ZM744.704 195.32C748.352 195.32 751.424 194.072 753.92 191.576C756.416 189.016 757.664 185.688 757.664 181.592V180.92C757.664 178.168 757.088 175.704 755.936 173.528C754.784 171.352 753.216 169.656 751.232 168.44C749.248 167.224 747.072 166.616 744.704 166.616C740.608 166.616 737.44 167.96 735.2 170.648C732.96 173.272 731.84 176.696 731.84 180.92C731.84 185.208 732.928 188.696 735.104 191.384C737.344 194.008 740.544 195.32 744.704 195.32ZM782.55 158.936H792.726L792.822 167C794.038 164.312 795.958 162.104 798.582 160.376C801.206 158.648 804.278 157.784 807.798 157.784C812.342 157.784 815.83 158.744 818.262 160.664C820.694 162.52 822.326 165.144 823.158 168.536C823.99 171.928 824.406 176.344 824.406 181.784V203H814.038V182.072C814.038 176.504 813.494 172.504 812.406 170.072C811.318 167.576 809.078 166.328 805.686 166.328C803.766 166.328 801.814 166.936 799.83 168.152C797.846 169.304 796.182 171 794.838 173.24C793.558 175.48 792.918 178.104 792.918 181.112V203H782.55V158.936ZM833.641 226.424C831.273 226.424 828.713 226.072 825.961 225.368L828.169 216.056C829.193 216.44 830.185 216.76 831.145 217.016C832.105 217.336 833.001 217.496 833.833 217.496C835.945 217.496 837.449 216.92 838.345 215.768C839.305 214.616 839.785 212.28 839.785 208.76V158.936H850.153V209.24C850.153 214.808 848.713 219.064 845.833 222.008C842.953 224.952 838.889 226.424 833.641 226.424ZM844.393 150.68C842.409 150.68 840.745 150.008 839.401 148.664C838.057 147.32 837.385 145.656 837.385 143.672C837.385 141.88 838.057 140.344 839.401 139.064C840.745 137.784 842.409 137.144 844.393 137.144C846.313 137.144 847.945 137.784 849.289 139.064C850.633 140.344 851.305 141.88 851.305 143.672C851.305 145.656 850.633 147.32 849.289 148.664C848.009 150.008 846.377 150.68 844.393 150.68ZM884.07 203.96C880.102 203.96 876.422 203.032 873.03 201.176C869.702 199.256 867.014 196.568 864.966 193.112C862.982 189.592 861.99 185.496 861.99 180.824C861.99 176.216 862.854 172.184 864.582 168.728C866.374 165.272 868.902 162.584 872.166 160.664C875.43 158.744 879.27 157.784 883.686 157.784C886.246 157.784 888.646 158.232 890.886 159.128C893.126 160.024 895.014 161.144 896.55 162.488C898.086 163.768 899.11 165.048 899.622 166.328L899.814 158.936H909.702V203H899.91L899.718 195.224C898.63 197.528 896.646 199.576 893.766 201.368C890.886 203.096 887.654 203.96 884.07 203.96ZM885.798 195.32C889.446 195.32 892.518 194.072 895.014 191.576C897.51 189.016 898.758 185.688 898.758 181.592V180.92C898.758 178.168 898.182 175.704 897.03 173.528C895.878 171.352 894.31 169.656 892.326 168.44C890.342 167.224 888.166 166.616 885.798 166.616C881.702 166.616 878.534 167.96 876.294 170.648C874.054 173.272 872.934 176.696 872.934 180.92C872.934 185.208 874.022 188.696 876.198 191.384C878.438 194.008 881.638 195.32 885.798 195.32ZM943.132 203.96C939.164 203.96 935.484 203.032 932.092 201.176C928.764 199.256 926.076 196.568 924.028 193.112C922.044 189.592 921.052 185.496 921.052 180.824C921.052 173.848 923.004 168.28 926.908 164.12C930.812 159.896 936.092 157.784 942.748 157.784C946.46 157.784 949.852 158.712 952.924 160.568C955.996 162.36 958.076 164.536 959.164 167.096L958.684 159.608V132.44H968.86V203H958.972L958.78 195.224C957.692 197.528 955.708 199.576 952.828 201.368C949.948 203.096 946.716 203.96 943.132 203.96ZM944.86 195.224C948.508 195.224 951.58 193.976 954.076 191.48C956.572 188.92 957.82 185.592 957.82 181.496V180.824C957.82 178.072 957.244 175.608 956.092 173.432C954.94 171.256 953.372 169.56 951.388 168.344C949.404 167.128 947.228 166.52 944.86 166.52C940.764 166.52 937.596 167.864 935.356 170.552C933.116 173.176 931.996 176.6 931.996 180.824C931.996 185.112 933.084 188.6 935.26 191.288C937.5 193.912 940.7 195.224 944.86 195.224ZM1003.44 203.96C998.197 203.96 993.813 202.936 990.293 200.888C986.773 198.776 984.181 195.992 982.517 192.536C980.853 189.016 980.021 185.176 980.021 181.016C980.021 176.344 980.981 172.248 982.901 168.728C984.885 165.208 987.605 162.52 991.061 160.664C994.517 158.744 998.421 157.784 1002.77 157.784C1009.56 157.784 1014.58 159.672 1017.84 163.448C1021.17 167.16 1022.84 172.408 1022.84 179.192C1022.84 180.92 1022.74 182.712 1022.55 184.568H990.869C991.573 188.472 992.949 191.288 994.997 193.016C997.109 194.744 1000.02 195.608 1003.73 195.608C1006.8 195.608 1009.33 195.352 1011.32 194.84C1013.3 194.328 1015.12 193.624 1016.79 192.728L1019.96 200.12C1018.36 201.144 1016.18 202.04 1013.43 202.808C1010.68 203.576 1007.35 203.96 1003.44 203.96ZM1012.76 177.368C1012.82 173.4 1011.96 170.616 1010.16 169.016C1008.37 167.352 1005.81 166.52 1002.48 166.52C995.765 166.52 991.893 170.136 990.869 177.368H1012.76Z" fill="white"/>
<g style="mix-blend-mode:exclusion">
<path d="M293.596 258.48C292.988 258.48 292.524 258.384 292.204 258.192C291.916 258.032 291.724 257.792 291.628 257.472C291.532 257.12 291.484 256.72 291.484 256.272V227.136C291.484 226.72 291.532 226.352 291.628 226.032C291.756 225.712 291.98 225.456 292.3 225.264C292.62 225.072 293.068 224.976 293.644 224.976H304.156C305.692 224.976 307.1 225.216 308.38 225.696C309.692 226.144 310.828 226.848 311.788 227.808C312.78 228.736 313.548 229.872 314.092 231.216C314.636 232.56 314.908 234.112 314.908 235.872C314.908 237.6 314.636 239.136 314.092 240.48C313.548 241.824 312.78 242.96 311.788 243.888C310.796 244.784 309.644 245.472 308.332 245.952C307.052 246.432 305.644 246.672 304.108 246.672H295.852V256.32C295.852 256.768 295.788 257.152 295.66 257.472C295.564 257.792 295.356 258.032 295.036 258.192C294.748 258.384 294.268 258.48 293.596 258.48ZM295.852 242.304H304.156C305.436 242.304 306.556 242.064 307.516 241.584C308.476 241.072 309.228 240.336 309.772 239.376C310.316 238.384 310.588 237.184 310.588 235.776C310.588 234.432 310.332 233.28 309.82 232.32C309.308 231.36 308.556 230.624 307.564 230.112C306.604 229.6 305.452 229.344 304.108 229.344H295.852V242.304ZM322.136 258.48C321.528 258.48 321.064 258.384 320.744 258.192C320.456 258.032 320.264 257.792 320.168 257.472C320.104 257.12 320.072 256.72 320.072 256.272V237.36C320.072 236.88 320.12 236.48 320.216 236.16C320.312 235.84 320.504 235.616 320.792 235.488C321.08 235.328 321.544 235.248 322.184 235.248C322.76 235.248 323.192 235.328 323.48 235.488C323.8 235.616 324.008 235.824 324.104 236.112C324.232 236.368 324.296 236.672 324.296 237.024L324.104 238.464C324.328 238.048 324.584 237.632 324.872 237.216C325.192 236.8 325.576 236.432 326.024 236.112C326.504 235.76 327.064 235.472 327.704 235.248C328.376 235.024 329.192 234.912 330.152 234.912C330.632 234.912 331.08 234.96 331.496 235.056C331.944 235.12 332.36 235.232 332.744 235.392C333.16 235.552 333.512 235.744 333.8 235.968C334.088 236.16 334.312 236.384 334.472 236.64C334.664 236.864 334.76 237.136 334.76 237.456C334.76 238.16 334.536 238.768 334.088 239.28C333.64 239.76 333.176 240 332.696 240C332.28 240 331.976 239.952 331.784 239.856C331.592 239.728 331.4 239.6 331.208 239.472C331.048 239.344 330.808 239.232 330.488 239.136C330.168 239.008 329.656 238.944 328.952 238.944C328.472 238.944 327.96 239.04 327.416 239.232C326.904 239.424 326.408 239.712 325.928 240.096C325.448 240.448 325.048 240.912 324.728 241.488C324.44 242.064 324.296 242.736 324.296 243.504V256.368C324.296 256.816 324.248 257.2 324.152 257.52C324.056 257.84 323.848 258.08 323.528 258.24C323.24 258.4 322.776 258.48 322.136 258.48ZM349.333 258.768C347.765 258.768 346.261 258.464 344.821 257.856C343.413 257.248 342.149 256.416 341.029 255.36C339.909 254.272 339.029 253.008 338.389 251.568C337.749 250.128 337.429 248.56 337.429 246.864C337.429 245.2 337.733 243.664 338.341 242.256C338.949 240.816 339.797 239.552 340.885 238.464C341.973 237.376 343.221 236.528 344.629 235.92C346.069 235.28 347.605 234.96 349.237 234.96C351.445 234.96 353.429 235.488 355.189 236.544C356.981 237.568 358.405 238.976 359.461 240.768C360.517 242.56 361.045 244.576 361.045 246.816C361.045 248.576 360.725 250.192 360.085 251.664C359.445 253.104 358.581 254.352 357.493 255.408C356.405 256.464 355.157 257.296 353.749 257.904C352.341 258.48 350.869 258.768 349.333 258.768ZM349.237 254.592C350.581 254.592 351.829 254.256 352.981 253.584C354.133 252.912 355.061 251.984 355.765 250.8C356.469 249.616 356.821 248.272 356.821 246.768C356.821 245.264 356.485 243.936 355.813 242.784C355.173 241.632 354.277 240.736 353.125 240.096C351.973 239.456 350.661 239.136 349.189 239.136C347.781 239.136 346.501 239.472 345.349 240.144C344.229 240.816 343.317 241.728 342.613 242.88C341.941 244.032 341.605 245.344 341.605 246.816C341.605 248.352 341.957 249.712 342.661 250.896C343.365 252.048 344.293 252.96 345.445 253.632C346.629 254.272 347.893 254.592 349.237 254.592ZM375.472 267.888C374.352 267.888 373.28 267.76 372.256 267.504C371.232 267.248 370.336 266.912 369.568 266.496C368.8 266.08 368.192 265.632 367.744 265.152C367.296 264.672 367.072 264.224 367.072 263.808C367.072 263.488 367.12 263.216 367.216 262.992C367.312 262.8 367.456 262.592 367.648 262.368C367.968 262.048 368.224 261.824 368.416 261.696C368.608 261.568 368.864 261.504 369.184 261.504C369.504 261.504 369.824 261.632 370.144 261.888C370.464 262.176 370.848 262.48 371.296 262.8C371.776 263.152 372.352 263.456 373.024 263.712C373.728 264 374.592 264.144 375.616 264.144C376.672 264.144 377.616 263.984 378.448 263.664C379.28 263.344 380 262.864 380.608 262.224C381.216 261.584 381.68 260.8 382 259.872C382.32 258.976 382.48 257.952 382.48 256.8L382.384 236.832C382.416 236.224 382.592 235.792 382.912 235.536C383.264 235.28 383.808 235.152 384.544 235.152C385.152 235.152 385.584 235.248 385.84 235.44C386.128 235.6 386.304 235.84 386.368 236.16C386.464 236.448 386.512 236.816 386.512 237.264V257.136C386.512 258.832 386.24 260.336 385.696 261.648C385.152 262.992 384.384 264.128 383.392 265.056C382.4 265.984 381.232 266.688 379.888 267.168C378.544 267.648 377.072 267.888 375.472 267.888ZM375.328 257.952C373.792 257.952 372.368 257.68 371.056 257.136C369.776 256.56 368.64 255.76 367.648 254.736C366.688 253.712 365.936 252.512 365.392 251.136C364.88 249.76 364.624 248.256 364.624 246.624C364.624 244.992 364.88 243.488 365.392 242.112C365.936 240.736 366.688 239.536 367.648 238.512C368.608 237.488 369.728 236.704 371.008 236.16C372.32 235.584 373.744 235.296 375.28 235.296C376.688 235.296 377.968 235.568 379.12 236.112C380.272 236.656 381.248 237.44 382.048 238.464C382.88 239.456 383.504 240.64 383.92 242.016C384.336 243.392 384.544 244.928 384.544 246.624C384.544 248.928 384.176 250.928 383.44 252.624C382.704 254.32 381.648 255.632 380.272 256.56C378.896 257.488 377.248 257.952 375.328 257.952ZM375.568 254.016C376.848 254.016 378 253.696 379.024 253.056C380.048 252.416 380.864 251.536 381.472 250.416C382.08 249.296 382.384 248 382.384 246.528C382.384 245.088 382.08 243.824 381.472 242.736C380.864 241.616 380.032 240.752 378.976 240.144C377.952 239.536 376.784 239.232 375.472 239.232C374.16 239.232 372.992 239.536 371.968 240.144C370.944 240.752 370.144 241.616 369.568 242.736C369.024 243.824 368.752 245.104 368.752 246.576C368.752 248.048 369.04 249.344 369.616 250.464C370.192 251.552 370.992 252.416 372.016 253.056C373.04 253.696 374.224 254.016 375.568 254.016ZM394.933 258.48C394.325 258.48 393.861 258.384 393.541 258.192C393.253 258.032 393.061 257.792 392.965 257.472C392.901 257.12 392.869 256.72 392.869 256.272V237.36C392.869 236.88 392.917 236.48 393.013 236.16C393.109 235.84 393.301 235.616 393.589 235.488C393.877 235.328 394.341 235.248 394.981 235.248C395.557 235.248 395.989 235.328 396.277 235.488C396.597 235.616 396.805 235.824 396.901 236.112C397.029 236.368 397.093 236.672 397.093 237.024L396.901 238.464C397.125 238.048 397.381 237.632 397.669 237.216C397.989 236.8 398.373 236.432 398.821 236.112C399.301 235.76 399.861 235.472 400.501 235.248C401.173 235.024 401.989 234.912 402.949 234.912C403.429 234.912 403.877 234.96 404.293 235.056C404.741 235.12 405.157 235.232 405.541 235.392C405.957 235.552 406.309 235.744 406.597 235.968C406.885 236.16 407.109 236.384 407.269 236.64C407.461 236.864 407.557 237.136 407.557 237.456C407.557 238.16 407.333 238.768 406.885 239.28C406.437 239.76 405.973 240 405.493 240C405.077 240 404.773 239.952 404.581 239.856C404.389 239.728 404.197 239.6 404.005 239.472C403.845 239.344 403.605 239.232 403.285 239.136C402.965 239.008 402.453 238.944 401.749 238.944C401.269 238.944 400.757 239.04 400.213 239.232C399.701 239.424 399.205 239.712 398.725 240.096C398.245 240.448 397.845 240.912 397.525 241.488C397.237 242.064 397.093 242.736 397.093 243.504V256.368C397.093 256.816 397.045 257.2 396.949 257.52C396.853 257.84 396.645 258.08 396.325 258.24C396.037 258.4 395.573 258.48 394.933 258.48ZM429.941 258.432C429.237 258.432 428.725 258.288 428.405 258C428.117 257.712 427.941 257.264 427.877 256.656L428.069 254.256C427.749 254.768 427.253 255.36 426.581 256.032C425.909 256.672 425.029 257.248 423.941 257.76C422.853 258.24 421.525 258.48 419.957 258.48C418.421 258.48 416.981 258.176 415.637 257.568C414.325 256.96 413.157 256.112 412.133 255.024C411.141 253.936 410.357 252.688 409.781 251.28C409.237 249.872 408.965 248.368 408.965 246.768C408.965 245.2 409.237 243.728 409.781 242.352C410.357 240.944 411.157 239.712 412.181 238.656C413.205 237.6 414.373 236.768 415.685 236.16C417.029 235.552 418.453 235.248 419.957 235.248C421.365 235.248 422.565 235.44 423.557 235.824C424.549 236.176 425.397 236.656 426.101 237.264C426.837 237.84 427.477 238.496 428.021 239.232L427.925 237.216C427.893 236.512 428.037 236.016 428.357 235.728C428.709 235.408 429.253 235.248 429.989 235.248C430.597 235.248 431.029 235.344 431.285 235.536C431.573 235.728 431.765 236 431.861 236.352C431.957 236.704 432.005 237.136 432.005 237.648V256.176C432.005 256.624 431.957 257.024 431.861 257.376C431.765 257.728 431.573 257.984 431.285 258.144C430.997 258.336 430.549 258.432 429.941 258.432ZM420.677 254.448C421.957 254.448 423.125 254.112 424.181 253.44C425.269 252.768 426.117 251.872 426.725 250.752C427.365 249.6 427.685 248.288 427.685 246.816C427.685 245.312 427.349 244 426.677 242.88C426.037 241.728 425.173 240.832 424.085 240.192C423.029 239.52 421.861 239.184 420.581 239.184C419.077 239.184 417.765 239.536 416.645 240.24C415.557 240.912 414.693 241.824 414.053 242.976C413.413 244.128 413.093 245.44 413.093 246.912C413.093 248.352 413.413 249.648 414.053 250.8C414.693 251.92 415.573 252.816 416.693 253.488C417.845 254.128 419.173 254.448 420.677 254.448ZM439.791 258.48C439.183 258.48 438.735 258.384 438.447 258.192C438.159 258 437.967 257.744 437.871 257.424C437.775 257.104 437.727 256.72 437.727 256.272V237.264C437.727 236.816 437.775 236.448 437.871 236.16C437.967 235.872 438.159 235.648 438.447 235.488C438.767 235.328 439.231 235.248 439.839 235.248C440.543 235.248 441.039 235.392 441.327 235.68C441.647 235.936 441.807 236.4 441.807 237.072L441.615 239.136C441.839 238.656 442.175 238.176 442.623 237.696C443.071 237.216 443.599 236.784 444.207 236.4C444.847 236.016 445.519 235.712 446.223 235.488C446.927 235.264 447.647 235.152 448.383 235.152C449.503 235.152 450.495 235.36 451.359 235.776C452.255 236.16 453.055 236.72 453.759 237.456C454.463 238.192 455.055 239.104 455.535 240.192C456.175 239.136 456.847 238.24 457.551 237.504C458.287 236.736 459.119 236.16 460.047 235.776C460.975 235.36 462.015 235.152 463.167 235.152C464.991 235.152 466.511 235.616 467.727 236.544C468.975 237.44 469.903 238.72 470.511 240.384C471.151 242.016 471.471 243.984 471.471 246.288V256.32C471.471 256.768 471.423 257.152 471.327 257.472C471.263 257.792 471.071 258.032 470.751 258.192C470.463 258.384 469.999 258.48 469.359 258.48C468.751 258.48 468.287 258.384 467.967 258.192C467.679 258 467.487 257.744 467.391 257.424C467.295 257.104 467.247 256.72 467.247 256.272V246.24C467.247 244.8 467.071 243.568 466.719 242.544C466.399 241.488 465.887 240.672 465.183 240.096C464.511 239.52 463.631 239.232 462.543 239.232C461.391 239.232 460.367 239.52 459.471 240.096C458.607 240.64 457.935 241.44 457.455 242.496C456.975 243.552 456.735 244.8 456.735 246.24V256.368C456.735 256.848 456.639 257.264 456.447 257.616C456.255 257.968 455.967 258.208 455.583 258.336C455.199 258.496 454.735 258.528 454.191 258.432C453.679 258.368 453.295 258.24 453.039 258.048C452.783 257.856 452.623 257.616 452.559 257.328C452.495 257.008 452.463 256.656 452.463 256.272V246.24C452.463 244.8 452.287 243.568 451.935 242.544C451.615 241.488 451.103 240.672 450.399 240.096C449.727 239.52 448.847 239.232 447.759 239.232C446.607 239.232 445.583 239.536 444.687 240.144C443.823 240.72 443.151 241.536 442.671 242.592C442.191 243.648 441.951 244.864 441.951 246.24V256.32C441.951 256.768 441.903 257.152 441.807 257.472C441.711 257.792 441.503 258.032 441.183 258.192C440.895 258.384 440.431 258.48 439.791 258.48ZM479.447 258.48C478.839 258.48 478.391 258.384 478.103 258.192C477.815 258 477.623 257.744 477.527 257.424C477.431 257.104 477.383 256.72 477.383 256.272V237.264C477.383 236.816 477.431 236.448 477.527 236.16C477.623 235.872 477.815 235.648 478.103 235.488C478.423 235.328 478.887 235.248 479.495 235.248C480.199 235.248 480.695 235.392 480.983 235.68C481.303 235.936 481.463 236.4 481.463 237.072L481.271 239.136C481.495 238.656 481.831 238.176 482.279 237.696C482.727 237.216 483.255 236.784 483.863 236.4C484.503 236.016 485.175 235.712 485.879 235.488C486.583 235.264 487.303 235.152 488.039 235.152C489.159 235.152 490.151 235.36 491.015 235.776C491.911 236.16 492.711 236.72 493.415 237.456C494.119 238.192 494.711 239.104 495.191 240.192C495.831 239.136 496.503 238.24 497.207 237.504C497.943 236.736 498.775 236.16 499.703 235.776C500.631 235.36 501.671 235.152 502.823 235.152C504.647 235.152 506.167 235.616 507.383 236.544C508.631 237.44 509.559 238.72 510.167 240.384C510.807 242.016 511.127 243.984 511.127 246.288V256.32C511.127 256.768 511.079 257.152 510.983 257.472C510.919 257.792 510.727 258.032 510.407 258.192C510.119 258.384 509.655 258.48 509.015 258.48C508.407 258.48 507.943 258.384 507.623 258.192C507.335 258 507.143 257.744 507.047 257.424C506.951 257.104 506.903 256.72 506.903 256.272V246.24C506.903 244.8 506.727 243.568 506.375 242.544C506.055 241.488 505.543 240.672 504.839 240.096C504.167 239.52 503.287 239.232 502.199 239.232C501.047 239.232 500.023 239.52 499.127 240.096C498.263 240.64 497.591 241.44 497.111 242.496C496.631 243.552 496.391 244.8 496.391 246.24V256.368C496.391 256.848 496.295 257.264 496.103 257.616C495.911 257.968 495.623 258.208 495.239 258.336C494.855 258.496 494.391 258.528 493.847 258.432C493.335 258.368 492.951 258.24 492.695 258.048C492.439 257.856 492.279 257.616 492.215 257.328C492.151 257.008 492.119 256.656 492.119 256.272V246.24C492.119 244.8 491.943 243.568 491.591 242.544C491.271 241.488 490.759 240.672 490.055 240.096C489.383 239.52 488.503 239.232 487.415 239.232C486.263 239.232 485.239 239.536 484.343 240.144C483.479 240.72 482.807 241.536 482.327 242.592C481.847 243.648 481.607 244.864 481.607 246.24V256.32C481.607 256.768 481.559 257.152 481.463 257.472C481.367 257.792 481.159 258.032 480.839 258.192C480.551 258.384 480.087 258.48 479.447 258.48ZM527.984 258.72C526.064 258.72 524.352 258.4 522.848 257.76C521.344 257.12 520.064 256.256 519.008 255.168C517.984 254.048 517.2 252.768 516.656 251.328C516.112 249.888 515.84 248.336 515.84 246.672C515.84 244.464 516.352 242.496 517.376 240.768C518.4 239.04 519.808 237.68 521.6 236.688C523.424 235.664 525.504 235.152 527.84 235.152C529.44 235.152 530.864 235.408 532.112 235.92C533.392 236.4 534.48 237.056 535.376 237.888C536.272 238.72 536.96 239.648 537.44 240.672C537.92 241.696 538.16 242.72 538.16 243.744C538.16 245.376 537.776 246.528 537.008 247.2C536.24 247.84 535.296 248.16 534.176 248.16H520.304C520.272 249.568 520.64 250.784 521.408 251.808C522.208 252.8 523.2 253.568 524.384 254.112C525.6 254.656 526.816 254.928 528.032 254.928C528.928 254.928 529.696 254.88 530.336 254.784C530.976 254.688 531.536 254.56 532.016 254.4C532.496 254.24 532.912 254.08 533.264 253.92C533.616 253.76 533.92 253.6 534.176 253.44C534.464 253.28 534.736 253.168 534.992 253.104C535.28 253.04 535.552 253.072 535.808 253.2C536.096 253.296 536.32 253.504 536.48 253.824C536.672 254.08 536.8 254.32 536.864 254.544C536.928 254.768 536.96 255.008 536.96 255.264C536.96 255.712 536.576 256.208 535.808 256.752C535.04 257.296 533.968 257.76 532.592 258.144C531.248 258.528 529.712 258.72 527.984 258.72ZM520.304 245.328H532.352C532.96 245.328 533.408 245.248 533.696 245.088C534.016 244.928 534.176 244.496 534.176 243.792C534.176 242.896 533.904 242.096 533.36 241.392C532.816 240.656 532.064 240.064 531.104 239.616C530.176 239.168 529.104 238.944 527.888 238.944C526.48 238.944 525.184 239.232 524 239.808C522.848 240.352 521.936 241.104 521.264 242.064C520.592 243.024 520.272 244.112 520.304 245.328ZM545.074 258.48C544.466 258.48 544.002 258.384 543.682 258.192C543.394 258.032 543.202 257.792 543.105 257.472C543.042 257.12 543.01 256.72 543.01 256.272V237.36C543.01 236.88 543.058 236.48 543.154 236.16C543.25 235.84 543.442 235.616 543.73 235.488C544.018 235.328 544.482 235.248 545.122 235.248C545.698 235.248 546.13 235.328 546.418 235.488C546.738 235.616 546.946 235.824 547.042 236.112C547.17 236.368 547.234 236.672 547.234 237.024L547.042 238.464C547.266 238.048 547.522 237.632 547.81 237.216C548.13 236.8 548.514 236.432 548.962 236.112C549.442 235.76 550.002 235.472 550.642 235.248C551.314 235.024 552.13 234.912 553.09 234.912C553.57 234.912 554.018 234.96 554.434 235.056C554.882 235.12 555.298 235.232 555.682 235.392C556.098 235.552 556.45 235.744 556.738 235.968C557.026 236.16 557.25 236.384 557.41 236.64C557.602 236.864 557.698 237.136 557.698 237.456C557.698 238.16 557.474 238.768 557.026 239.28C556.578 239.76 556.114 240 555.634 240C555.218 240 554.914 239.952 554.722 239.856C554.53 239.728 554.338 239.6 554.146 239.472C553.986 239.344 553.746 239.232 553.426 239.136C553.106 239.008 552.594 238.944 551.89 238.944C551.41 238.944 550.898 239.04 550.354 239.232C549.842 239.424 549.346 239.712 548.866 240.096C548.386 240.448 547.986 240.912 547.666 241.488C547.378 242.064 547.234 242.736 547.234 243.504V256.368C547.234 256.816 547.186 257.2 547.09 257.52C546.994 257.84 546.786 258.08 546.466 258.24C546.178 258.4 545.714 258.48 545.074 258.48ZM576.857 267.984C576.345 267.984 575.945 267.888 575.657 267.696C575.369 267.536 575.177 267.296 575.081 266.976C575.017 266.656 574.985 266.272 574.985 265.824V226.656C574.985 226.208 575.017 225.824 575.081 225.504C575.177 225.184 575.369 224.944 575.657 224.784C575.945 224.624 576.361 224.544 576.905 224.544C577.481 224.544 577.897 224.64 578.153 224.832C578.409 224.992 578.569 225.232 578.633 225.552C578.729 225.872 578.777 226.256 578.777 226.704V265.872C578.777 266.32 578.729 266.704 578.633 267.024C578.569 267.344 578.393 267.584 578.105 267.744C577.849 267.904 577.433 267.984 576.857 267.984ZM599.503 258.48C598.927 258.48 598.479 258.384 598.159 258.192C597.871 258 597.663 257.744 597.535 257.424C597.407 257.072 597.343 256.688 597.343 256.272V227.088C597.343 226.672 597.407 226.32 597.535 226.032C597.663 225.712 597.887 225.456 598.207 225.264C598.527 225.072 598.991 224.976 599.599 224.976C600.079 224.976 600.463 225.008 600.751 225.072C601.039 225.136 601.263 225.232 601.423 225.36C601.615 225.456 601.807 225.616 601.999 225.84L614.527 243.984H613.039L625.711 225.696C625.903 225.472 626.095 225.312 626.287 225.216C626.479 225.12 626.719 225.056 627.007 225.024C627.327 224.992 627.695 224.976 628.111 224.976C628.719 224.976 629.167 225.072 629.455 225.264C629.775 225.456 629.999 225.728 630.127 226.08C630.255 226.4 630.319 226.768 630.319 227.184V256.368C630.319 256.752 630.255 257.104 630.127 257.424C629.999 257.744 629.775 258 629.455 258.192C629.135 258.384 628.671 258.48 628.063 258.48C627.487 258.48 627.039 258.384 626.719 258.192C626.431 258 626.223 257.744 626.095 257.424C625.999 257.072 625.951 256.688 625.951 256.272V232.176L615.679 247.296C615.583 247.456 615.455 247.616 615.295 247.776C615.135 247.904 614.927 248.016 614.671 248.112C614.447 248.208 614.159 248.256 613.807 248.256C613.423 248.256 613.119 248.208 612.895 248.112C612.703 248.016 612.527 247.904 612.367 247.776C612.207 247.616 612.047 247.44 611.887 247.248L601.663 232.224V256.368C601.663 256.752 601.599 257.104 601.471 257.424C601.375 257.744 601.167 258 600.847 258.192C600.559 258.384 600.111 258.48 599.503 258.48ZM645.881 258.528C644.473 258.528 643.161 258.272 641.945 257.76C640.761 257.248 639.721 256.528 638.825 255.6C637.929 254.672 637.225 253.552 636.713 252.24C636.233 250.928 635.993 249.44 635.993 247.776V237.36C635.993 236.912 636.041 236.528 636.137 236.208C636.233 235.888 636.425 235.648 636.713 235.488C637.033 235.296 637.497 235.2 638.105 235.2C638.713 235.2 639.161 235.296 639.449 235.488C639.769 235.68 639.977 235.936 640.073 236.256C640.169 236.576 640.217 236.96 640.217 237.408V247.824C640.217 249.136 640.441 250.304 640.889 251.328C641.337 252.32 642.009 253.088 642.905 253.632C643.833 254.176 644.953 254.448 646.265 254.448C647.609 254.448 648.761 254.176 649.721 253.632C650.713 253.088 651.465 252.32 651.977 251.328C652.521 250.304 652.793 249.136 652.793 247.824V237.36C652.793 236.912 652.841 236.528 652.937 236.208C653.033 235.888 653.225 235.648 653.513 235.488C653.833 235.296 654.297 235.2 654.905 235.2C655.513 235.2 655.961 235.296 656.249 235.488C656.569 235.68 656.761 235.936 656.825 236.256C656.921 236.576 656.969 236.96 656.969 237.408V256.464C656.969 256.848 656.921 257.2 656.825 257.52C656.761 257.808 656.569 258.032 656.249 258.192C655.961 258.352 655.513 258.432 654.905 258.432C654.457 258.432 654.089 258.384 653.801 258.288C653.545 258.192 653.353 258.064 653.225 257.904C653.097 257.744 653.001 257.568 652.937 257.376C652.905 257.152 652.889 256.928 652.889 256.704L653.081 254.64C652.761 255.024 652.377 255.44 651.929 255.888C651.481 256.336 650.953 256.768 650.345 257.184C649.769 257.568 649.113 257.888 648.377 258.144C647.641 258.4 646.809 258.528 645.881 258.528ZM670.455 258.72C669.687 258.72 668.887 258.64 668.055 258.48C667.223 258.32 666.407 258.096 665.607 257.808C664.839 257.488 664.151 257.12 663.543 256.704C662.967 256.288 662.535 255.824 662.247 255.312C662.087 254.992 661.991 254.704 661.959 254.448C661.927 254.16 661.975 253.888 662.103 253.632C662.231 253.376 662.423 253.12 662.679 252.864C662.999 252.48 663.319 252.304 663.639 252.336C663.959 252.336 664.359 252.544 664.839 252.96C665.191 253.184 665.607 253.44 666.087 253.728C666.567 253.984 667.063 254.224 667.575 254.448C668.087 254.64 668.599 254.816 669.111 254.976C669.655 255.104 670.183 255.168 670.695 255.168C672.167 255.168 673.351 254.896 674.247 254.352C675.143 253.776 675.591 253.024 675.591 252.096C675.591 251.552 675.479 251.088 675.255 250.704C675.031 250.32 674.727 250 674.343 249.744C673.959 249.456 673.527 249.216 673.047 249.024C672.567 248.832 672.023 248.656 671.415 248.496C670.839 248.304 670.263 248.128 669.687 247.968C668.823 247.744 667.975 247.488 667.143 247.2C666.311 246.912 665.559 246.544 664.887 246.096C664.215 245.616 663.671 245.024 663.255 244.32C662.839 243.584 662.631 242.656 662.631 241.536C662.631 240.224 662.967 239.088 663.639 238.128C664.311 237.168 665.255 236.432 666.471 235.92C667.687 235.376 669.111 235.104 670.743 235.104C671.447 235.104 672.103 235.152 672.711 235.248C673.319 235.344 673.895 235.504 674.439 235.728C675.015 235.92 675.559 236.16 676.071 236.448C676.583 236.704 677.079 237.024 677.559 237.408C678.135 237.792 678.439 238.208 678.471 238.656C678.503 239.104 678.327 239.568 677.943 240.048C677.655 240.464 677.335 240.736 676.983 240.864C676.631 240.96 676.279 240.864 675.927 240.576C675.415 240.192 674.871 239.856 674.295 239.568C673.719 239.28 673.127 239.04 672.519 238.848C671.911 238.656 671.287 238.56 670.647 238.56C669.847 238.56 669.127 238.688 668.487 238.944C667.879 239.168 667.399 239.52 667.047 240C666.727 240.448 666.567 240.96 666.567 241.536C666.567 242.048 666.695 242.464 666.951 242.784C667.239 243.104 667.591 243.376 668.007 243.6C668.455 243.824 668.967 244.032 669.543 244.224C670.151 244.384 670.775 244.544 671.415 244.704C672.343 244.928 673.287 245.2 674.247 245.52C675.239 245.808 676.119 246.208 676.887 246.72C677.687 247.2 678.327 247.856 678.807 248.688C679.319 249.488 679.575 250.56 679.575 251.904C679.575 254.016 678.743 255.68 677.079 256.896C675.415 258.112 673.207 258.72 670.455 258.72ZM687.11 258.48C686.502 258.48 686.038 258.384 685.718 258.192C685.43 258.032 685.238 257.792 685.142 257.472C685.046 257.152 684.998 256.768 684.998 256.32V237.36C684.998 236.912 685.046 236.528 685.142 236.208C685.238 235.888 685.43 235.648 685.718 235.488C686.038 235.328 686.518 235.248 687.158 235.248C687.766 235.248 688.214 235.344 688.502 235.536C688.79 235.696 688.982 235.936 689.078 236.256C689.174 236.576 689.222 236.976 689.222 237.456V256.368C689.222 256.816 689.174 257.2 689.078 257.52C688.982 257.84 688.774 258.08 688.454 258.24C688.166 258.4 687.718 258.48 687.11 258.48ZM687.11 229.488C686.406 229.488 685.878 229.392 685.526 229.2C685.174 228.976 684.934 228.672 684.806 228.288C684.71 227.904 684.662 227.456 684.662 226.944C684.662 226.432 684.726 226 684.854 225.648C684.982 225.264 685.222 224.992 685.574 224.832C685.926 224.64 686.454 224.544 687.158 224.544C687.83 224.544 688.342 224.64 688.694 224.832C689.046 225.024 689.27 225.312 689.366 225.696C689.494 226.08 689.558 226.528 689.558 227.04C689.558 227.552 689.494 228 689.366 228.384C689.27 228.736 689.046 229.008 688.694 229.2C688.342 229.392 687.814 229.488 687.11 229.488ZM705.218 258.576C703.554 258.576 701.986 258.304 700.514 257.76C699.074 257.216 697.794 256.432 696.674 255.408C695.586 254.384 694.722 253.168 694.082 251.76C693.474 250.32 693.17 248.688 693.17 246.864C693.17 245.04 693.474 243.424 694.082 242.016C694.722 240.576 695.586 239.344 696.674 238.32C697.762 237.296 699.026 236.512 700.466 235.968C701.938 235.424 703.49 235.152 705.122 235.152C706.21 235.152 707.282 235.328 708.338 235.68C709.394 236 710.322 236.432 711.122 236.976C711.954 237.488 712.546 238.032 712.898 238.608C713.218 239.024 713.442 239.376 713.57 239.664C713.73 239.92 713.746 240.224 713.618 240.576C713.49 240.832 713.314 241.072 713.09 241.296C712.866 241.488 712.642 241.648 712.418 241.776C711.842 242.224 711.266 242.288 710.69 241.968C710.338 241.616 709.938 241.296 709.49 241.008C709.074 240.688 708.626 240.4 708.146 240.144C707.666 239.888 707.17 239.696 706.658 239.568C706.178 239.408 705.666 239.328 705.122 239.328C703.618 239.328 702.29 239.648 701.138 240.288C699.986 240.896 699.09 241.776 698.45 242.928C697.842 244.048 697.538 245.36 697.538 246.864C697.538 248.368 697.842 249.68 698.45 250.8C699.09 251.92 699.97 252.8 701.09 253.44C702.242 254.08 703.554 254.4 705.026 254.4C705.698 254.4 706.338 254.32 706.946 254.16C707.586 253.968 708.178 253.728 708.722 253.44C709.266 253.12 709.714 252.784 710.066 252.432C710.386 252.208 710.658 252.016 710.882 251.856C711.106 251.696 711.378 251.616 711.698 251.616C711.954 251.616 712.226 251.728 712.514 251.952C712.802 252.144 713.106 252.448 713.426 252.864C713.682 253.152 713.826 253.456 713.858 253.776C713.922 254.096 713.874 254.4 713.714 254.688C713.554 254.976 713.298 255.264 712.946 255.552C712.434 256.064 711.746 256.56 710.882 257.04C710.05 257.488 709.138 257.856 708.146 258.144C707.154 258.432 706.178 258.576 705.218 258.576ZM733.621 258.48C732.981 258.48 732.501 258.384 732.181 258.192C731.893 258.032 731.701 257.792 731.605 257.472C731.509 257.12 731.461 256.72 731.461 256.272V227.136C731.461 226.304 731.621 225.744 731.941 225.456C732.293 225.136 732.901 224.976 733.765 224.976H753.061C753.509 224.976 753.893 225.024 754.213 225.12C754.533 225.216 754.773 225.424 754.932 225.744C755.093 226.064 755.173 226.544 755.173 227.184C755.173 227.824 755.077 228.304 754.885 228.624C754.725 228.912 754.485 229.104 754.165 229.2C753.845 229.296 753.461 229.344 753.013 229.344H735.781V239.28H747.781C748.229 239.28 748.597 239.328 748.885 239.424C749.205 239.52 749.445 239.712 749.605 240C749.765 240.288 749.845 240.736 749.845 241.344C749.845 241.92 749.765 242.352 749.605 242.64C749.445 242.928 749.205 243.12 748.885 243.216C748.565 243.28 748.165 243.312 747.685 243.312H735.781V254.16H753.061C753.509 254.16 753.893 254.208 754.213 254.304C754.533 254.4 754.773 254.608 754.932 254.928C755.093 255.216 755.173 255.68 755.173 256.32C755.173 256.96 755.077 257.44 754.885 257.76C754.725 258.048 754.485 258.24 754.165 258.336C753.845 258.432 753.461 258.48 753.013 258.48H733.621ZM762.855 258.432C762.247 258.432 761.783 258.336 761.463 258.144C761.175 257.984 760.983 257.744 760.887 257.424C760.823 257.104 760.791 256.72 760.791 256.272V237.216C760.791 236.8 760.839 236.448 760.935 236.16C761.031 235.872 761.223 235.648 761.511 235.488C761.831 235.328 762.295 235.248 762.903 235.248C763.383 235.248 763.751 235.312 764.007 235.44C764.295 235.536 764.487 235.68 764.583 235.872C764.711 236.064 764.791 236.272 764.823 236.496C764.855 236.72 764.871 236.928 764.871 237.12L764.775 239.328C765.095 238.784 765.495 238.272 765.975 237.792C766.455 237.28 767.015 236.832 767.655 236.448C768.295 236.032 768.983 235.712 769.719 235.488C770.487 235.264 771.303 235.152 772.167 235.152C773.575 235.152 774.871 235.408 776.055 235.92C777.239 236.4 778.247 237.12 779.079 238.08C779.943 239.008 780.599 240.128 781.047 241.44C781.527 242.752 781.767 244.24 781.767 245.904V256.32C781.767 256.768 781.719 257.152 781.623 257.472C781.559 257.792 781.367 258.032 781.047 258.192C780.759 258.352 780.311 258.432 779.703 258.432C779.063 258.432 778.583 258.336 778.263 258.144C777.975 257.984 777.783 257.744 777.687 257.424C777.591 257.104 777.543 256.72 777.543 256.272V245.856C777.543 244.512 777.319 243.344 776.871 242.352C776.423 241.36 775.751 240.592 774.855 240.048C773.959 239.472 772.823 239.184 771.447 239.184C770.135 239.184 768.983 239.472 767.991 240.048C767.031 240.592 766.279 241.36 765.735 242.352C765.223 243.344 764.967 244.512 764.967 245.856V256.32C764.967 256.768 764.919 257.152 764.823 257.472C764.727 257.792 764.519 258.032 764.199 258.192C763.911 258.352 763.463 258.432 762.855 258.432ZM782.469 267.84C782.053 267.84 781.685 267.776 781.365 267.648C781.045 267.552 780.805 267.36 780.645 267.072C780.453 266.784 780.357 266.336 780.357 265.728C780.357 265.152 780.453 264.72 780.645 264.432C780.805 264.144 781.061 263.936 781.413 263.808C781.733 263.712 782.101 263.664 782.517 263.664C783.253 263.664 783.957 263.6 784.63 263.472C785.334 263.344 785.942 263.088 786.454 262.704C786.998 262.32 787.414 261.744 787.702 260.976C788.022 260.24 788.182 259.28 788.182 258.096V237.216C788.182 236.8 788.23 236.448 788.326 236.16C788.422 235.872 788.614 235.648 788.902 235.488C789.222 235.296 789.686 235.2 790.294 235.2C790.87 235.2 791.302 235.296 791.59 235.488C791.91 235.648 792.118 235.904 792.214 236.256C792.31 236.576 792.358 236.96 792.358 237.408V258.096C792.358 259.76 792.102 261.2 791.59 262.416C791.078 263.664 790.374 264.688 789.478 265.488C788.582 266.288 787.542 266.88 786.358 267.264C785.174 267.648 783.877 267.84 782.469 267.84ZM790.198 229.44C789.27 229.44 788.63 229.264 788.278 228.912C787.958 228.528 787.798 227.872 787.798 226.944C787.798 226.016 787.974 225.392 788.326 225.072C788.678 224.72 789.318 224.544 790.246 224.544C791.174 224.544 791.798 224.736 792.118 225.12C792.47 225.472 792.646 226.112 792.646 227.04C792.646 227.936 792.47 228.56 792.118 228.912C791.766 229.264 791.126 229.44 790.198 229.44ZM809.505 258.768C807.937 258.768 806.433 258.464 804.993 257.856C803.585 257.248 802.321 256.416 801.201 255.36C800.081 254.272 799.201 253.008 798.561 251.568C797.921 250.128 797.601 248.56 797.601 246.864C797.601 245.2 797.905 243.664 798.513 242.256C799.121 240.816 799.969 239.552 801.057 238.464C802.145 237.376 803.393 236.528 804.801 235.92C806.241 235.28 807.777 234.96 809.409 234.96C811.617 234.96 813.601 235.488 815.361 236.544C817.153 237.568 818.577 238.976 819.633 240.768C820.689 242.56 821.217 244.576 821.217 246.816C821.217 248.576 820.897 250.192 820.257 251.664C819.617 253.104 818.753 254.352 817.665 255.408C816.577 256.464 815.329 257.296 813.921 257.904C812.513 258.48 811.041 258.768 809.505 258.768ZM809.409 254.592C810.753 254.592 812.001 254.256 813.153 253.584C814.305 252.912 815.233 251.984 815.937 250.8C816.641 249.616 816.993 248.272 816.993 246.768C816.993 245.264 816.657 243.936 815.985 242.784C815.345 241.632 814.449 240.736 813.297 240.096C812.145 239.456 810.833 239.136 809.361 239.136C807.953 239.136 806.673 239.472 805.521 240.144C804.401 240.816 803.489 241.728 802.785 242.88C802.113 244.032 801.777 245.344 801.777 246.816C801.777 248.352 802.129 249.712 802.833 250.896C803.537 252.048 804.465 252.96 805.617 253.632C806.801 254.272 808.065 254.592 809.409 254.592ZM829.535 267.792C828.767 267.472 828.319 267.104 828.191 266.688C828.063 266.272 828.175 265.696 828.527 264.96L841.247 236.4C841.599 235.664 841.967 235.216 842.351 235.056C842.767 234.864 843.343 234.928 844.079 235.248C844.847 235.6 845.279 235.984 845.375 236.4C845.503 236.816 845.407 237.376 845.087 238.08L832.271 266.784C831.951 267.52 831.599 267.952 831.215 268.08C830.831 268.208 830.271 268.112 829.535 267.792ZM834.287 255.408L823.295 238.464C822.879 237.824 822.719 237.296 822.815 236.88C822.911 236.432 823.279 236 823.919 235.584C824.623 235.136 825.183 234.976 825.599 235.104C826.047 235.2 826.495 235.568 826.943 236.208L836.255 250.848L834.287 255.408ZM860.609 258.72C858.689 258.72 856.977 258.4 855.473 257.76C853.969 257.12 852.689 256.256 851.633 255.168C850.609 254.048 849.825 252.768 849.281 251.328C848.737 249.888 848.465 248.336 848.465 246.672C848.465 244.464 848.977 242.496 850.001 240.768C851.025 239.04 852.433 237.68 854.225 236.688C856.049 235.664 858.129 235.152 860.465 235.152C862.065 235.152 863.489 235.408 864.737 235.92C866.017 236.4 867.105 237.056 868.001 237.888C868.897 238.72 869.585 239.648 870.065 240.672C870.545 241.696 870.785 242.72 870.785 243.744C870.785 245.376 870.401 246.528 869.633 247.2C868.865 247.84 867.921 248.16 866.801 248.16H852.929C852.897 249.568 853.265 250.784 854.033 251.808C854.833 252.8 855.825 253.568 857.009 254.112C858.225 254.656 859.441 254.928 860.657 254.928C861.553 254.928 862.321 254.88 862.961 254.784C863.601 254.688 864.161 254.56 864.641 254.4C865.121 254.24 865.537 254.08 865.889 253.92C866.241 253.76 866.545 253.6 866.801 253.44C867.089 253.28 867.361 253.168 867.617 253.104C867.905 253.04 868.177 253.072 868.433 253.2C868.721 253.296 868.945 253.504 869.105 253.824C869.297 254.08 869.425 254.32 869.489 254.544C869.553 254.768 869.585 255.008 869.585 255.264C869.585 255.712 869.201 256.208 868.433 256.752C867.665 257.296 866.593 257.76 865.217 258.144C863.873 258.528 862.337 258.72 860.609 258.72ZM852.929 245.328H864.977C865.585 245.328 866.033 245.248 866.321 245.088C866.641 244.928 866.801 244.496 866.801 243.792C866.801 242.896 866.529 242.096 865.985 241.392C865.441 240.656 864.689 240.064 863.729 239.616C862.801 239.168 861.729 238.944 860.513 238.944C859.105 238.944 857.809 239.232 856.625 239.808C855.473 240.352 854.561 241.104 853.889 242.064C853.217 243.024 852.897 244.112 852.929 245.328ZM877.699 258.48C877.091 258.48 876.627 258.384 876.307 258.192C876.019 258.032 875.827 257.792 875.73 257.472C875.667 257.12 875.635 256.72 875.635 256.272V237.36C875.635 236.88 875.683 236.48 875.779 236.16C875.875 235.84 876.067 235.616 876.355 235.488C876.643 235.328 877.107 235.248 877.747 235.248C878.323 235.248 878.755 235.328 879.043 235.488C879.363 235.616 879.571 235.824 879.667 236.112C879.795 236.368 879.859 236.672 879.859 237.024L879.667 238.464C879.891 238.048 880.147 237.632 880.435 237.216C880.755 236.8 881.139 236.432 881.587 236.112C882.067 235.76 882.627 235.472 883.267 235.248C883.939 235.024 884.755 234.912 885.715 234.912C886.195 234.912 886.643 234.96 887.059 235.056C887.507 235.12 887.923 235.232 888.307 235.392C888.723 235.552 889.075 235.744 889.363 235.968C889.651 236.16 889.875 236.384 890.035 236.64C890.227 236.864 890.323 237.136 890.323 237.456C890.323 238.16 890.099 238.768 889.651 239.28C889.203 239.76 888.739 240 888.259 240C887.843 240 887.539 239.952 887.347 239.856C887.155 239.728 886.963 239.6 886.771 239.472C886.611 239.344 886.371 239.232 886.051 239.136C885.731 239.008 885.219 238.944 884.515 238.944C884.035 238.944 883.523 239.04 882.979 239.232C882.467 239.424 881.971 239.712 881.491 240.096C881.011 240.448 880.611 240.912 880.291 241.488C880.003 242.064 879.859 242.736 879.859 243.504V256.368C879.859 256.816 879.811 257.2 879.715 257.52C879.619 257.84 879.411 258.08 879.091 258.24C878.803 258.4 878.339 258.48 877.699 258.48ZM909.482 267.984C908.97 267.984 908.57 267.888 908.282 267.696C907.994 267.536 907.802 267.296 907.706 266.976C907.642 266.656 907.61 266.272 907.61 265.824V226.656C907.61 226.208 907.642 225.824 907.706 225.504C907.802 225.184 907.994 224.944 908.282 224.784C908.57 224.624 908.986 224.544 909.53 224.544C910.106 224.544 910.522 224.64 910.778 224.832C911.034 224.992 911.194 225.232 911.258 225.552C911.354 225.872 911.402 226.256 911.402 226.704V265.872C911.402 266.32 911.354 266.704 911.258 267.024C911.194 267.344 911.018 267.584 910.73 267.744C910.474 267.904 910.058 267.984 909.482 267.984ZM931.84 258.48C931.296 258.48 930.864 258.384 930.544 258.192C930.256 258 930.048 257.744 929.92 257.424C929.824 257.072 929.776 256.672 929.776 256.224V226.992C929.776 226.576 929.84 226.224 929.968 225.936C930.096 225.648 930.32 225.424 930.64 225.264C930.992 225.072 931.472 224.976 932.08 224.976C932.784 224.976 933.28 225.04 933.568 225.168C933.856 225.296 934.144 225.52 934.432 225.84L952.48 251.376V226.992C952.48 226.576 952.528 226.224 952.624 225.936C952.752 225.648 952.976 225.424 953.296 225.264C953.616 225.072 954.08 224.976 954.688 224.976C955.264 224.976 955.696 225.072 955.984 225.264C956.304 225.456 956.512 225.728 956.608 226.08C956.736 226.4 956.8 226.768 956.8 227.184V256.272C956.8 256.688 956.72 257.072 956.56 257.424C956.432 257.744 956.192 258 955.84 258.192C955.52 258.384 955.056 258.48 954.448 258.48C953.936 258.48 953.504 258.416 953.152 258.288C952.832 258.16 952.528 257.92 952.24 257.568L934.096 232.224V256.272C934.096 256.688 934.032 257.072 933.904 257.424C933.776 257.744 933.552 258 933.232 258.192C932.912 258.384 932.448 258.48 931.84 258.48ZM974.609 258.72C972.689 258.72 970.977 258.4 969.473 257.76C967.969 257.12 966.689 256.256 965.633 255.168C964.609 254.048 963.825 252.768 963.281 251.328C962.737 249.888 962.465 248.336 962.465 246.672C962.465 244.464 962.977 242.496 964.001 240.768C965.025 239.04 966.433 237.68 968.225 236.688C970.049 235.664 972.129 235.152 974.465 235.152C976.065 235.152 977.489 235.408 978.737 235.92C980.017 236.4 981.105 237.056 982.001 237.888C982.897 238.72 983.585 239.648 984.065 240.672C984.545 241.696 984.785 242.72 984.785 243.744C984.785 245.376 984.401 246.528 983.633 247.2C982.865 247.84 981.921 248.16 980.801 248.16H966.929C966.897 249.568 967.265 250.784 968.033 251.808C968.833 252.8 969.825 253.568 971.009 254.112C972.225 254.656 973.441 254.928 974.657 254.928C975.553 254.928 976.321 254.88 976.961 254.784C977.601 254.688 978.161 254.56 978.641 254.4C979.121 254.24 979.537 254.08 979.889 253.92C980.241 253.76 980.545 253.6 980.801 253.44C981.089 253.28 981.361 253.168 981.617 253.104C981.905 253.04 982.177 253.072 982.433 253.2C982.721 253.296 982.945 253.504 983.105 253.824C983.297 254.08 983.425 254.32 983.489 254.544C983.553 254.768 983.585 255.008 983.585 255.264C983.585 255.712 983.201 256.208 982.433 256.752C981.665 257.296 980.593 257.76 979.217 258.144C977.873 258.528 976.337 258.72 974.609 258.72ZM966.929 245.328H978.977C979.585 245.328 980.033 245.248 980.321 245.088C980.641 244.928 980.801 244.496 980.801 243.792C980.801 242.896 980.529 242.096 979.985 241.392C979.441 240.656 978.689 240.064 977.729 239.616C976.801 239.168 975.729 238.944 974.513 238.944C973.105 238.944 971.809 239.232 970.625 239.808C969.473 240.352 968.561 241.104 967.889 242.064C967.217 243.024 966.897 244.112 966.929 245.328ZM1000.1 258.768C998.531 258.768 997.027 258.464 995.587 257.856C994.179 257.248 992.915 256.416 991.795 255.36C990.675 254.272 989.795 253.008 989.155 251.568C988.515 250.128 988.195 248.56 988.195 246.864C988.195 245.2 988.499 243.664 989.107 242.256C989.715 240.816 990.563 239.552 991.651 238.464C992.739 237.376 993.987 236.528 995.395 235.92C996.835 235.28 998.371 234.96 1000 234.96C1002.21 234.96 1004.19 235.488 1005.95 236.544C1007.75 237.568 1009.17 238.976 1010.23 240.768C1011.28 242.56 1011.81 244.576 1011.81 246.816C1011.81 248.576 1011.49 250.192 1010.85 251.664C1010.21 253.104 1009.35 254.352 1008.26 255.408C1007.17 256.464 1005.92 257.296 1004.51 257.904C1003.11 258.48 1001.63 258.768 1000.1 258.768ZM1000 254.592C1001.35 254.592 1002.59 254.256 1003.75 253.584C1004.9 252.912 1005.83 251.984 1006.53 250.8C1007.23 249.616 1007.59 248.272 1007.59 246.768C1007.59 245.264 1007.25 243.936 1006.58 242.784C1005.94 241.632 1005.04 240.736 1003.89 240.096C1002.74 239.456 1001.43 239.136 999.955 239.136C998.547 239.136 997.267 239.472 996.115 240.144C994.995 240.816 994.083 241.728 993.379 242.88C992.707 244.032 992.371 245.344 992.371 246.816C992.371 248.352 992.723 249.712 993.427 250.896C994.131 252.048 995.059 252.96 996.211 253.632C997.395 254.272 998.659 254.592 1000 254.592ZM1028.21 258.288C1026.64 258.288 1025.21 258 1023.93 257.424C1022.65 256.848 1021.57 256.048 1020.67 255.024C1019.77 253.968 1019.07 252.736 1018.56 251.328C1018.08 249.92 1017.85 248.368 1017.89 246.672C1017.89 245.008 1018.13 243.472 1018.61 242.064C1019.09 240.656 1019.77 239.44 1020.67 238.416C1021.6 237.36 1022.69 236.56 1023.93 236.016C1025.21 235.44 1026.64 235.152 1028.21 235.152C1029.68 235.152 1031.05 235.44 1032.33 236.016C1033.65 236.592 1034.78 237.408 1035.74 238.464C1036.73 239.488 1037.5 240.72 1038.05 242.16C1038.62 243.6 1038.91 245.152 1038.91 246.816C1038.91 248.48 1038.62 250.016 1038.05 251.424C1037.5 252.832 1036.73 254.048 1035.74 255.072C1034.78 256.096 1033.65 256.896 1032.33 257.472C1031.05 258.016 1029.68 258.288 1028.21 258.288ZM1018.22 267.936C1017.61 267.936 1017.15 267.84 1016.83 267.648C1016.54 267.488 1016.33 267.248 1016.21 266.928C1016.11 266.608 1016.06 266.224 1016.06 265.776V237.408C1016.06 236.96 1016.11 236.576 1016.21 236.256C1016.3 235.936 1016.49 235.696 1016.78 235.536C1017.1 235.344 1017.57 235.248 1018.17 235.248C1018.88 235.248 1019.39 235.36 1019.71 235.584C1020.06 235.808 1020.27 236.208 1020.33 236.784V265.728C1020.37 266.176 1020.33 266.56 1020.24 266.88C1020.14 267.232 1019.93 267.488 1019.61 267.648C1019.33 267.84 1018.86 267.936 1018.22 267.936ZM1027.58 254.352C1028.93 254.352 1030.14 254.032 1031.23 253.392C1032.32 252.72 1033.17 251.808 1033.77 250.656C1034.41 249.504 1034.73 248.192 1034.73 246.72C1034.73 245.216 1034.41 243.904 1033.77 242.784C1033.17 241.664 1032.32 240.8 1031.23 240.192C1030.17 239.552 1028.96 239.232 1027.58 239.232C1026.24 239.232 1025.02 239.552 1023.93 240.192C1022.88 240.832 1022.03 241.712 1021.39 242.832C1020.78 243.952 1020.48 245.248 1020.48 246.72C1020.48 248.192 1020.78 249.504 1021.39 250.656C1022.03 251.808 1022.88 252.72 1023.93 253.392C1025.02 254.032 1026.24 254.352 1027.58 254.352ZM1045.78 258.48C1045.18 258.48 1044.71 258.384 1044.39 258.192C1044.07 258.032 1043.86 257.792 1043.77 257.472C1043.7 257.12 1043.67 256.72 1043.67 256.272V226.704C1043.67 226.256 1043.72 225.872 1043.82 225.552C1043.91 225.232 1044.12 224.992 1044.44 224.832C1044.76 224.64 1045.22 224.544 1045.83 224.544C1046.47 224.544 1046.94 224.64 1047.22 224.832C1047.54 224.992 1047.74 225.232 1047.8 225.552C1047.9 225.872 1047.94 226.272 1047.94 226.752V238.608C1048.71 237.712 1049.64 236.912 1050.73 236.208C1051.85 235.504 1053.21 235.152 1054.81 235.152C1056.7 235.152 1058.38 235.6 1059.85 236.496C1061.35 237.36 1062.54 238.592 1063.4 240.192C1064.3 241.792 1064.74 243.696 1064.74 245.904V256.32C1064.74 256.768 1064.7 257.152 1064.6 257.472C1064.5 257.792 1064.31 258.032 1064.02 258.192C1063.74 258.384 1063.27 258.48 1062.63 258.48C1062.02 258.48 1061.56 258.384 1061.24 258.192C1060.92 258.032 1060.71 257.792 1060.62 257.472C1060.52 257.12 1060.47 256.72 1060.47 256.272V245.856C1060.47 244.512 1060.25 243.344 1059.8 242.352C1059.35 241.36 1058.68 240.592 1057.78 240.048C1056.92 239.504 1055.82 239.232 1054.47 239.232C1052.65 239.232 1051.14 239.76 1049.96 240.816C1048.81 241.84 1048.14 243.216 1047.94 244.944V256.32C1047.94 256.768 1047.9 257.152 1047.8 257.472C1047.7 257.792 1047.5 258.032 1047.18 258.192C1046.89 258.384 1046.42 258.48 1045.78 258.48ZM1072.05 258.48C1071.44 258.48 1070.98 258.384 1070.66 258.192C1070.37 258.032 1070.18 257.792 1070.08 257.472C1069.98 257.152 1069.94 256.768 1069.94 256.32V237.36C1069.94 236.912 1069.98 236.528 1070.08 236.208C1070.18 235.888 1070.37 235.648 1070.66 235.488C1070.98 235.328 1071.46 235.248 1072.1 235.248C1072.7 235.248 1073.15 235.344 1073.44 235.536C1073.73 235.696 1073.92 235.936 1074.02 236.256C1074.11 236.576 1074.16 236.976 1074.16 237.456V256.368C1074.16 256.816 1074.11 257.2 1074.02 257.52C1073.92 257.84 1073.71 258.08 1073.39 258.24C1073.1 258.4 1072.66 258.48 1072.05 258.48ZM1072.05 229.488C1071.34 229.488 1070.82 229.392 1070.46 229.2C1070.11 228.976 1069.87 228.672 1069.74 228.288C1069.65 227.904 1069.6 227.456 1069.6 226.944C1069.6 226.432 1069.66 226 1069.79 225.648C1069.92 225.264 1070.16 224.992 1070.51 224.832C1070.86 224.64 1071.39 224.544 1072.1 224.544C1072.77 224.544 1073.28 224.64 1073.63 224.832C1073.98 225.024 1074.21 225.312 1074.3 225.696C1074.43 226.08 1074.5 226.528 1074.5 227.04C1074.5 227.552 1074.43 228 1074.3 228.384C1074.21 228.736 1073.98 229.008 1073.63 229.2C1073.28 229.392 1072.75 229.488 1072.05 229.488ZM1087.73 258.48C1086.7 258.48 1085.77 258.384 1084.94 258.192C1084.14 258.032 1083.44 257.76 1082.83 257.376C1082.22 256.992 1081.71 256.496 1081.29 255.888C1080.91 255.28 1080.62 254.544 1080.43 253.68C1080.27 252.816 1080.19 251.808 1080.19 250.656V226.656C1080.19 226.176 1080.22 225.776 1080.29 225.456C1080.38 225.136 1080.59 224.896 1080.91 224.736C1081.23 224.544 1081.68 224.448 1082.25 224.448C1082.89 224.448 1083.36 224.528 1083.65 224.688C1083.97 224.848 1084.17 225.088 1084.27 225.408C1084.37 225.728 1084.41 226.112 1084.41 226.56V250.608C1084.41 251.248 1084.48 251.808 1084.61 252.288C1084.73 252.736 1084.93 253.12 1085.18 253.44C1085.47 253.76 1085.82 253.984 1086.24 254.112C1086.65 254.24 1087.15 254.304 1087.73 254.304C1088.11 254.304 1088.43 254.352 1088.69 254.448C1088.97 254.544 1089.2 254.736 1089.36 255.024C1089.52 255.312 1089.6 255.76 1089.6 256.368C1089.6 257.008 1089.52 257.488 1089.36 257.808C1089.2 258.096 1088.97 258.272 1088.69 258.336C1088.43 258.432 1088.11 258.48 1087.73 258.48ZM1104.87 258.72C1102.95 258.72 1101.24 258.4 1099.74 257.76C1098.23 257.12 1096.95 256.256 1095.9 255.168C1094.87 254.048 1094.09 252.768 1093.55 251.328C1093 249.888 1092.73 248.336 1092.73 246.672C1092.73 244.464 1093.24 242.496 1094.27 240.768C1095.29 239.04 1096.7 237.68 1098.49 236.688C1100.31 235.664 1102.39 235.152 1104.73 235.152C1106.33 235.152 1107.75 235.408 1109 235.92C1110.28 236.4 1111.37 237.056 1112.27 237.888C1113.16 238.72 1113.85 239.648 1114.33 240.672C1114.81 241.696 1115.05 242.72 1115.05 243.744C1115.05 245.376 1114.67 246.528 1113.9 247.2C1113.13 247.84 1112.19 248.16 1111.07 248.16H1097.19C1097.16 249.568 1097.53 250.784 1098.3 251.808C1099.1 252.8 1100.09 253.568 1101.27 254.112C1102.49 254.656 1103.71 254.928 1104.92 254.928C1105.82 254.928 1106.59 254.88 1107.23 254.784C1107.87 254.688 1108.43 254.56 1108.91 254.4C1109.39 254.24 1109.8 254.08 1110.15 253.92C1110.51 253.76 1110.81 253.6 1111.07 253.44C1111.35 253.28 1111.63 253.168 1111.88 253.104C1112.17 253.04 1112.44 253.072 1112.7 253.2C1112.99 253.296 1113.21 253.504 1113.37 253.824C1113.56 254.08 1113.69 254.32 1113.75 254.544C1113.82 254.768 1113.85 255.008 1113.85 255.264C1113.85 255.712 1113.47 256.208 1112.7 256.752C1111.93 257.296 1110.86 257.76 1109.48 258.144C1108.14 258.528 1106.6 258.72 1104.87 258.72ZM1097.19 245.328H1109.24C1109.85 245.328 1110.3 245.248 1110.59 245.088C1110.91 244.928 1111.07 244.496 1111.07 243.792C1111.07 242.896 1110.79 242.096 1110.25 241.392C1109.71 240.656 1108.95 240.064 1107.99 239.616C1107.07 239.168 1105.99 238.944 1104.78 238.944C1103.37 238.944 1102.07 239.232 1100.89 239.808C1099.74 240.352 1098.83 241.104 1098.15 242.064C1097.48 243.024 1097.16 244.112 1097.19 245.328Z" fill="white"/>
</g>
<path d="M1323 217C1342.88 217 1359 233.125 1359 253C1359 273.062 1342.88 289 1323 289H1275C1254.94 289 1239 273.062 1239 253C1239 233.125 1254.94 217 1275 217H1323ZM1285.31 257.5C1287.94 257.5 1289.81 255.625 1289.81 253C1289.81 250.562 1287.75 248.5 1285.31 248.5H1279.31V242.5C1279.31 240.062 1277.25 238 1274.81 238C1272.19 238 1270.31 240.062 1270.31 242.5V248.5H1264.31C1261.69 248.5 1259.81 250.562 1259.81 253C1259.81 255.625 1261.88 257.5 1264.5 257.5H1270.31V263.5C1270.31 266.125 1272.19 268 1274.81 268C1277.25 268 1279.31 266.125 1279.31 263.5V257.5H1285.31ZM1319.81 269.5C1324.12 269.5 1327.12 266.5 1327.12 262.188C1327.12 258.062 1323.75 254.688 1319.81 254.688C1315.69 254.688 1312.5 258.25 1312.5 262.188C1312.5 266.312 1315.5 269.5 1319.81 269.5ZM1331.81 251.5C1336.12 251.5 1339.12 248.5 1339.12 244.188C1339.12 240.062 1335.94 236.688 1331.81 236.688C1327.69 236.688 1324.5 240.25 1324.5 244.188C1324.5 248.312 1327.5 251.5 1331.81 251.5Z" fill="white" fill-opacity="0.5"/>
<path d="M231.062 43C233.125 43 235.188 44.3125 236.312 46.1875L254.688 80.125C256.938 79.5625 259.375 79 262 79C275.125 79 286 89.875 286 103C286 116.312 275.125 127 262 127C248.688 127 238 116.312 238 103C238 95.5 241.375 88.9375 246.812 84.4375L242.688 76.9375L226.75 103.938C226 105.25 224.5 106 223 106H213.812C212.312 118 202.188 127 190 127C176.688 127 166 116.312 166 103C166 89.875 176.688 79 190 79C191.875 79 193.938 79.375 195.812 79.75L200.688 69.8125L196.562 64H188.5C185.875 64 184 62.125 184 59.5C184 57.0625 185.875 55 188.5 55H199C200.312 55 201.625 55.75 202.562 56.875L207.625 64H235.75L229.188 52H224.312C221.875 52 219.812 50.125 219.812 47.5C219.812 45.0625 221.875 43 224.312 43H231.062ZM248.5 103C248.5 110.5 254.5 116.5 262 116.5C269.312 116.5 275.5 110.5 275.5 103C275.5 95.6875 269.312 89.5 262 89.5C261.25 89.5 260.5 89.6875 259.75 89.6875L265.938 100.938C267.062 103.188 266.312 105.812 264.062 107.125C261.812 108.25 259.188 107.5 257.875 105.25L251.875 94C249.812 96.4375 248.5 99.625 248.5 103ZM186.25 98.6875L190.938 89.6875C190.562 89.6875 190.188 89.5 189.812 89.5C182.5 89.5 176.312 95.6875 176.312 103C176.312 110.5 182.5 116.5 189.812 116.5C196.375 116.5 201.625 112.188 203.125 106H190.938C187 106 184.562 102.062 186.25 98.6875ZM220.375 97L206.688 78.0625L197.125 97H220.375ZM214.188 73L225.438 88.5625L234.438 73H214.188Z" fill="white" fill-opacity="0.5"/>
<path d="M102 223V255H94V221C94 217.75 96.625 215 100 215H152C155.25 215 158 217.75 158 221V255H150V223H102ZM164 259C165 259 166 260 166 261V263C166 267.5 162.375 271 158 271H94C89.5 271 86 267.5 86 263V261C86 260 86.875 259 88 259H164ZM131.625 246.875C130.75 245.875 130.75 244.25 131.625 243.25L135.875 239L131.625 234.875C130.75 233.875 130.75 232.25 131.625 231.25C132.625 230.375 134.25 230.375 135.25 231.25L141.25 237.25C142.125 238.25 142.125 239.875 141.25 240.875L135.25 246.875C134.75 247.375 134.125 247.5 133.5 247.5C132.75 247.5 132.125 247.375 131.625 246.875ZM120.25 231.25C121.125 232.25 121.125 233.875 120.25 234.875L116 239L120.25 243.25C121.125 244.25 121.125 245.875 120.25 246.875C119.75 247.375 119.125 247.5 118.5 247.5C117.75 247.5 117.125 247.375 116.625 246.875L110.625 240.875C109.75 239.875 109.75 238.25 110.625 237.25L116.625 231.25C117.625 230.375 119.25 230.375 120.25 231.25Z" fill="white" fill-opacity="0.5"/>
<g style="mix-blend-mode:exclusion">
<path d="M1171.38 99C1171.38 104.5 1166 109 1159.5 109C1152.88 109 1147.5 104.5 1147.5 99C1147.5 93.5 1152.88 89.125 1159.5 89.125C1160.88 89.125 1162.12 89.375 1163.5 89.75V71.625L1131.5 81L1131.38 107.125C1131.38 112.625 1126.12 117 1119.38 117C1112.62 117 1107.5 112.625 1107.5 107C1107.5 101.5 1112.75 97.125 1119.38 97.125C1120.75 97.125 1122.12 97.375 1123.38 97.75V68.875C1123.38 67.25 1124.62 65.5 1126.12 65L1166 53.25C1166.5 53.125 1167.12 53 1167.5 53C1169.62 53 1171.38 54.875 1171.5 57L1171.38 99Z" fill="white" fill-opacity="0.5"/>
</g>
</svg>
